<svg width="40" height="30" viewBox="0 0 40 30" fill="none" xmlns="http://www.w3.org/2000/svg">
<path d="M34.6085 0H4.82055C2.1615 0 0 2.1615 0 4.82055V25.1794C0 27.8385 2.1615 30 4.82055 30H34.6003C37.2594 30 39.4209 27.8385 39.4209 25.1794V4.82871C39.429 2.16966 37.2675 0 34.6085 0ZM37.2268 25.1794C37.2268 26.6232 36.0522 27.7977 34.6085 27.7977H4.82055C3.37684 27.7977 2.20228 26.6232 2.20228 25.1794V4.82871C2.20228 3.38499 3.37684 2.21044 4.82055 2.21044H34.6003C36.044 2.21044 37.2186 3.38499 37.2186 4.82871V25.1794H37.2268Z" fill="white"/>
<path d="M24.8612 14.7471L34.5023 6.10109C34.9509 5.69326 34.9917 4.99994 34.5839 4.54317C34.176 4.09456 33.4827 4.05378 33.026 4.46161L19.7307 16.3947L17.1369 14.0782C17.1287 14.0701 17.1206 14.0619 17.1206 14.0538C17.0635 13.9967 17.0064 13.9477 16.9411 13.8988L6.38648 4.45345C5.92971 4.04562 5.2364 4.0864 4.82857 4.54317C4.42074 4.99994 4.46152 5.69326 4.91829 6.10109L14.6736 14.8205L4.95908 23.9151C4.51862 24.3311 4.49415 25.0244 4.91014 25.473C5.13037 25.7014 5.424 25.8238 5.71764 25.8238C5.98681 25.8238 6.25598 25.7259 6.46805 25.5301L16.3294 16.305L19.0048 18.6949C19.2168 18.8825 19.4778 18.9722 19.7388 18.9722C19.9999 18.9722 20.269 18.8743 20.4729 18.6867L23.2217 16.2234L33.026 25.5383C33.238 25.7422 33.5154 25.8401 33.7845 25.8401C34.0782 25.8401 34.3636 25.7259 34.5839 25.4975C34.9999 25.057 34.9835 24.3556 34.5431 23.9396L24.8612 14.7471Z" fill="white"/>
</svg>
