<svg width="214" height="40" viewBox="0 0 214 40" fill="none" xmlns="http://www.w3.org/2000/svg">
<rect width="214" height="40" fill="white"/>
<path d="M73.9961 10.796L71.2961 10.292V7.772H76.9841C77.8001 7.772 78.8801 7.724 80.2241 7.628C80.5121 7.604 80.8721 7.58 81.3041 7.556C81.7361 7.532 82.2401 7.52 82.8161 7.52C85.4321 7.52 87.4841 7.76 88.9721 8.24C90.4601 8.72 91.4921 9.404 92.0681 10.292C92.6681 11.18 92.9681 12.296 92.9681 13.64C92.9681 15.44 92.4041 16.928 91.2761 18.104C90.1721 19.28 88.7561 19.988 87.0281 20.228C89.4281 20.228 91.3121 20.768 92.6801 21.848C94.0721 22.928 94.7681 24.452 94.7681 26.42C94.7681 28.988 93.8801 31.016 92.1041 32.504C90.3521 33.992 87.3641 34.736 83.1401 34.736C82.4681 34.736 81.8201 34.712 81.1961 34.664C80.5721 34.64 80.1281 34.628 79.8641 34.628C79.0001 34.556 78.0641 34.52 77.0561 34.52H71.2241V32.144L73.9961 31.748V10.796ZM80.0801 19.328C80.5121 19.376 81.4841 19.4 82.9961 19.4C84.3161 19.4 85.2881 18.956 85.9121 18.068C86.5361 17.156 86.8481 15.884 86.8481 14.252C86.8481 12.74 86.5121 11.636 85.8401 10.94C85.1681 10.244 84.0761 9.896 82.5641 9.896C82.2041 9.896 81.7841 9.92 81.3041 9.968C80.8241 9.992 80.4161 10.028 80.0801 10.076V19.328ZM80.0801 31.964C80.5601 32.156 81.5081 32.252 82.9241 32.252C84.7001 32.252 85.9841 31.784 86.7761 30.848C87.5921 29.912 88.0001 28.556 88.0001 26.78C88.0001 25.1 87.6281 23.9 86.8841 23.18C86.1401 22.46 84.9641 22.1 83.3561 22.1C82.0361 22.1 80.9441 22.124 80.0801 22.172V31.964Z" fill="#005FA3"/>
<path d="M113.553 34.88C112.689 34.88 112.065 34.7 111.681 34.34C111.297 33.956 111.105 33.404 111.105 32.684V31.892C110.529 32.684 109.665 33.392 108.513 34.016C107.361 34.616 106.197 34.916 105.021 34.916C102.669 34.916 100.989 34.34 99.9808 33.188C98.9968 32.012 98.5048 30.056 98.5048 27.32V17.312L96.8128 16.844V14.54L103.581 14.072H103.617L104.409 14.576V27.464C104.409 29.024 104.601 30.116 104.985 30.74C105.369 31.34 106.053 31.64 107.037 31.64C108.381 31.64 109.509 31.184 110.421 30.272V17.312L108.189 16.772V14.54L115.317 14.072H115.425L116.289 14.576V32.036H118.197V34.34C117.381 34.508 116.625 34.64 115.929 34.736C115.257 34.832 114.465 34.88 113.553 34.88Z" fill="#005FA3"/>
<path d="M122.105 8.528L119.549 8.06V5.864L126.785 5H126.893L127.937 5.756L127.973 13.568L127.685 16.772C128.429 16.076 129.413 15.464 130.637 14.936C131.861 14.384 133.205 14.108 134.669 14.108C136.181 14.108 137.357 14.384 138.197 14.936C139.037 15.488 139.625 16.328 139.961 17.456C140.297 18.584 140.465 20.084 140.465 21.956V31.82L142.661 32.144V34.52H132.653V32.144L134.561 31.82V21.992C134.561 20.312 134.381 19.148 134.021 18.5C133.661 17.828 132.929 17.492 131.825 17.492C131.153 17.492 130.481 17.648 129.809 17.96C129.137 18.248 128.573 18.608 128.117 19.04V31.82L130.097 32.144V34.52H120.233V32.144L122.105 31.82V8.528Z" fill="#005FA3"/>
<path d="M156.188 34.916C152.156 34.916 149.168 33.704 147.224 31.28C145.28 28.832 144.308 25.472 144.308 21.2C144.308 18.44 144.812 16.028 145.82 13.964C146.852 11.876 148.292 10.268 150.14 9.14C151.988 8.012 154.148 7.448 156.62 7.448C160.748 7.448 163.784 8.6 165.728 10.904C167.696 13.184 168.68 16.448 168.68 20.696C168.68 23.504 168.164 25.988 167.132 28.148C166.1 30.284 164.636 31.952 162.74 33.152C160.868 34.328 158.684 34.916 156.188 34.916ZM156.512 9.824C154.784 9.824 153.44 10.772 152.48 12.668C151.544 14.564 151.076 17.396 151.076 21.164C151.076 25.004 151.544 27.86 152.48 29.732C153.416 31.58 154.748 32.504 156.476 32.504C158.18 32.504 159.5 31.496 160.436 29.48C161.396 27.44 161.876 24.524 161.876 20.732C161.876 16.892 161.42 14.12 160.508 12.416C159.596 10.688 158.264 9.824 156.512 9.824Z" fill="#005FA3"/>
<path d="M173.196 18.284L171.072 17.636V14.828L177.624 14.036H177.732L178.668 14.792V16.124L178.632 16.952C179.472 16.16 180.54 15.488 181.836 14.936C183.132 14.384 184.488 14.108 185.904 14.108C187.344 14.108 188.472 14.372 189.288 14.9C190.128 15.404 190.728 16.22 191.088 17.348C191.472 18.476 191.664 20.012 191.664 21.956V31.82L193.68 32.108V34.52H183.888V32.144L185.652 31.82V21.992C185.652 20.84 185.568 19.952 185.4 19.328C185.256 18.68 184.992 18.212 184.608 17.924C184.224 17.636 183.672 17.492 182.952 17.492C181.848 17.492 180.6 18.008 179.208 19.04V31.82L181.188 32.144V34.52H171.216V32.144L173.196 31.82V18.284Z" fill="#005FA3"/>
<path d="M205.359 34.916C202.071 34.916 199.635 33.992 198.051 32.144C196.467 30.272 195.675 27.728 195.675 24.512C195.675 22.328 196.083 20.444 196.899 18.86C197.715 17.276 198.855 16.076 200.319 15.26C201.807 14.42 203.547 14 205.539 14C208.059 14 209.979 14.636 211.299 15.908C212.643 17.18 213.339 18.98 213.387 21.308C213.387 22.844 213.279 24.08 213.063 25.016H201.795C201.915 27.056 202.407 28.616 203.271 29.696C204.159 30.752 205.395 31.28 206.979 31.28C207.867 31.28 208.791 31.136 209.751 30.848C210.735 30.536 211.527 30.188 212.127 29.804L213.135 32C212.511 32.696 211.443 33.356 209.931 33.98C208.443 34.604 206.919 34.916 205.359 34.916ZM207.663 22.64L207.699 21.128C207.699 19.616 207.495 18.464 207.087 17.672C206.679 16.88 205.983 16.484 204.999 16.484C203.991 16.484 203.211 16.928 202.659 17.816C202.107 18.68 201.807 20.288 201.759 22.64H207.663Z" fill="#005FA3"/>
<path d="M32.5839 4.47283C32.5607 4.44965 32.5144 4.42648 32.4912 4.38013C32.5144 4.42648 32.5607 4.44965 32.5839 4.47283Z" fill="#FFFAF7"/>
<path d="M32.1437 4.12517C32.2596 4.21787 32.3754 4.31057 32.4913 4.3801C32.3754 4.31057 32.2596 4.21787 32.1437 4.12517C32.1205 4.102 32.0742 4.07882 32.051 4.05565L32.0046 4.03247L32.051 4.05565C32.0742 4.07882 32.1205 4.102 32.1437 4.12517Z" fill="#FFFAF7"/>
<path d="M31.9582 3.98605L31.8887 3.9397L31.9582 3.98605Z" fill="#FFFAF7"/>
<path d="M31.7033 3.80076C31.7265 3.82394 31.7265 3.82394 31.7497 3.84711C31.7497 3.82394 31.7265 3.82394 31.7033 3.80076L31.657 3.77759L31.7033 3.80076Z" fill="#FFFAF7"/>
<path d="M31.6801 3.77753C31.6338 3.75436 31.6106 3.73118 31.5874 3.70801C31.6106 3.73118 31.6338 3.75436 31.6801 3.77753Z" fill="#FFFAF7"/>
<path d="M31.2631 3.49946C31.2167 3.47628 31.1936 3.45311 31.1472 3.42993C31.1936 3.45311 31.2399 3.47628 31.2631 3.49946Z" fill="#FFFAF7"/>
<path d="M23.2907 0.301214C23.2212 0.278039 23.1285 0.278039 23.059 0.254864C23.0126 0.254864 22.9895 0.254864 22.9431 0.231689C22.9895 0.231689 23.0126 0.231689 23.059 0.254864C23.1285 0.254864 23.2212 0.278039 23.2907 0.301214Z" fill="#FFFAF7"/>
<path d="M28.4588 1.90043C28.2502 1.80773 28.0648 1.71503 27.8794 1.64551C28.088 1.71503 28.2734 1.80773 28.4588 1.90043Z" fill="#FFFAF7"/>
<path d="M30.7764 3.17505C30.8227 3.19822 30.8691 3.2214 30.8922 3.24457C30.8691 3.2214 30.8227 3.19822 30.7764 3.17505Z" fill="#FFFAF7"/>
<path d="M26.0718 0.950122C26.0255 0.926947 25.9791 0.926947 25.9328 0.903772C25.8864 0.880597 25.8401 0.880597 25.7937 0.857422C25.8401 0.880597 25.8864 0.880597 25.9328 0.903772C25.9559 0.926947 26.0023 0.950122 26.0718 0.950122Z" fill="#FFFAF7"/>
<path d="M25.3071 0.741681C25.2839 0.718506 25.2607 0.718506 25.2375 0.718506H25.2144H25.2375C25.2607 0.718506 25.2839 0.718506 25.3071 0.741681Z" fill="#FFFAF7"/>
<path d="M27.7405 1.57593C27.81 1.5991 27.8564 1.62228 27.8795 1.64545C27.8332 1.62228 27.81 1.5991 27.7405 1.57593Z" fill="#FFFAF7"/>
<path d="M30.2666 2.85057L30.3593 2.92009C30.4288 2.96644 30.4983 2.98962 30.5447 3.03597C30.4751 2.98962 30.4288 2.96644 30.3593 2.92009L30.2666 2.85057C30.2434 2.85057 30.2434 2.82739 30.2202 2.82739C30.2434 2.85057 30.2434 2.85057 30.2666 2.85057Z" fill="#FFFAF7"/>
<path d="M32.7462 4.61172C32.6999 4.56537 32.6535 4.5422 32.6072 4.49585C32.6535 4.5422 32.6999 4.56537 32.7462 4.61172Z" fill="#FFFAF7"/>
<path d="M29.9885 2.6882C30.0348 2.71137 30.0812 2.73454 30.1275 2.75772C30.0812 2.73454 30.0348 2.71137 29.9885 2.6882L29.9653 2.66502C29.9421 2.66502 29.9421 2.64185 29.9189 2.64185C29.9421 2.64185 29.9421 2.66502 29.9653 2.66502L29.9885 2.6882Z" fill="#FFFAF7"/>
<path d="M28.5051 1.92363L28.6674 2.01633C28.7369 2.03951 28.8064 2.08586 28.8528 2.10903C28.7832 2.08586 28.7137 2.03951 28.6674 2.01633L28.5051 1.92363C28.5051 1.90046 28.5051 1.92363 28.5051 1.92363C28.5051 1.92363 28.5051 1.90046 28.5051 1.92363Z" fill="#FFFAF7"/>
<path d="M27.0221 1.29783C27.1612 1.34418 27.3234 1.41371 27.5088 1.48323C27.532 1.48323 27.532 1.48323 27.5551 1.50641C27.532 1.50641 27.532 1.50641 27.5088 1.48323C27.3234 1.41371 27.1612 1.34418 27.0221 1.29783L26.9294 1.27466H26.9062H26.9294L27.0221 1.29783Z" fill="#FFFAF7"/>
<path d="M0.208496 17.1264C0.208496 17.1032 0.208496 17.0568 0.231671 17.0337V17.0105V17.0337C0.208496 17.0568 0.208496 17.08 0.208496 17.1264Z" fill="#FFFAF7"/>
<path d="M0.115967 17.7983C0.115967 17.7751 0.115967 17.7519 0.115967 17.7288C0.139142 17.7519 0.115967 17.7751 0.115967 17.7983Z" fill="#FFFAF7"/>
<path d="M0.0463683 18.5632V18.54C0.0463683 18.54 0.0463683 18.54 0.0463683 18.5632C0.0463683 18.6327 0.0231934 18.7254 0.0231934 18.795C0.0463683 18.7023 0.0463683 18.6327 0.0463683 18.5632Z" fill="#FFFAF7"/>
<path d="M10.4519 26.7439C10.4519 26.7671 10.4751 26.7902 10.4751 26.7902C10.4519 26.7902 10.4519 26.7671 10.4519 26.7439Z" fill="#FFFAF7"/>
<path d="M20.7417 0.0463867C21.182 0.0695617 21.6455 0.0927366 22.0858 0.139087C21.6455 0.0927366 21.2052 0.0463867 20.7417 0.0463867Z" fill="#FFFAF7"/>
<path d="M24.1946 0.463379C24.3336 0.486554 24.4495 0.509729 24.5654 0.556079C24.4495 0.509729 24.3105 0.486554 24.1946 0.463379Z" fill="#FFFAF7"/>
<path d="M28.8992 2.10889C29.2004 2.24794 29.4785 2.41016 29.7566 2.57239C29.4785 2.41016 29.2004 2.24794 28.8992 2.10889Z" fill="#FFFAF7"/>
<path d="M33.0243 4.84362C32.9779 4.82045 32.9547 4.7741 32.9084 4.75092L32.8389 4.6814L32.9084 4.75092C32.9547 4.7741 33.0011 4.82045 33.0243 4.84362Z" fill="#FFFAF7"/>
<path d="M13.4646 8.73688C15.1795 6.90606 17.2653 5.46921 19.6291 4.56538C20.3476 4.28728 21.066 4.05554 21.8076 3.89331C21.066 4.07871 20.3476 4.28728 19.6291 4.56538C17.2421 5.49238 15.1564 6.90606 13.4646 8.73688Z" fill="#FFFAF7"/>
<path d="M17.0104 34.2062C15.0405 33.0243 13.3256 31.4252 11.9814 29.5017C11.4947 28.8064 11.0776 28.088 10.7068 27.3232C11.0776 28.0648 11.4947 28.8064 11.9814 29.5017C13.3256 31.402 15.0405 33.0011 17.0104 34.2062Z" fill="#FFFAF7"/>
<path d="M4.28737 30.2897C1.5759 27.6014 0.0695249 24.0325 0 20.2318V20.1855V20.1159C0 20.0928 0 20.0696 0 20.0696C0 20.0928 0 20.1159 0 20.1159C0 20.1391 0 20.1623 0 20.1855V20.2318C0.0695249 24.0325 1.5759 27.6014 4.28737 30.2897C6.99884 32.9549 10.591 34.4381 14.4148 34.4381C15.0174 34.4381 15.6199 34.3917 16.2225 34.3222C15.6199 34.3917 15.0174 34.4381 14.4148 34.4381C10.591 34.4381 6.99884 32.9549 4.28737 30.2897Z" fill="#FFFAF7"/>
<path d="M33.4645 5.23749C33.5109 5.28384 33.5341 5.30702 33.5804 5.33019C33.5572 5.30702 33.5109 5.28384 33.4645 5.23749L33.4182 5.19114L33.395 5.16797L33.4182 5.19114L33.4645 5.23749Z" fill="#FFFAF7"/>
<path d="M34.0209 5.74743C33.9977 5.72426 33.9745 5.70108 33.9513 5.67791C33.9282 5.65473 33.8818 5.60838 33.8586 5.58521C33.8818 5.60838 33.9282 5.65473 33.9513 5.67791C33.9513 5.70108 33.9977 5.72426 34.0209 5.74743Z" fill="#FFFAF7"/>
<path d="M33.7197 5.46916C33.6965 5.44599 33.6501 5.42281 33.627 5.37646C33.6501 5.39964 33.6733 5.44599 33.7197 5.46916Z" fill="#FFFAF7"/>
<path d="M0.23175 16.9641V17.0104C0.23175 17.0336 0.23175 17.08 0.208575 17.1031V17.1263C0.208575 17.1495 0.208575 17.1727 0.208575 17.1958V17.2422V17.2654V17.2885V17.3117C0.208575 17.3812 0.1854 17.4508 0.1854 17.5203C0.1854 17.5898 0.162225 17.6362 0.162225 17.7057C0.162225 17.7289 0.162225 17.752 0.162225 17.7752C0.162225 17.8447 0.13905 17.9143 0.13905 17.9838C0.13905 18.0301 0.13905 18.0997 0.115875 18.146V18.1924C0.115875 18.2155 0.115875 18.2387 0.115875 18.2619C0.115875 18.2851 0.115875 18.3082 0.115875 18.3314C0.115875 18.3546 0.115875 18.3546 0.115875 18.3778C0.115875 18.4009 0.115875 18.4009 0.115875 18.4241C0.115875 18.4473 0.115875 18.4705 0.115875 18.4936V18.5168C0.115875 18.5863 0.0926999 18.679 0.0926999 18.7486C0.0926999 18.7949 0.0926999 18.8181 0.0926999 18.8644C0.0926999 18.9108 0.0926999 18.934 0.0926999 18.9803C0.0926999 18.9803 0.0926999 18.9803 0.0926999 19.0035V19.0267V19.0498V19.073C0.0926999 19.1194 0.0926999 19.1657 0.0926999 19.2121C0.0926999 19.2352 0.0926999 19.2584 0.0926999 19.2584C0.0926999 19.3511 0.0926999 19.4206 0.0926999 19.4902C0.0926999 19.5133 0.0926999 19.5133 0.0926999 19.5365V19.5597C0.0926999 19.6292 0.0926999 19.6987 0.0926999 19.7451V19.7914V19.8146V19.8841C0 19.9536 0 19.9536 0 19.9768C0 20 0 20 0 20.0232C0 20.0464 0 20.0463 0 20.0695C0 20.0927 0 20.1159 0 20.1159V20.1854V20.2317C0.0463499 24.0324 1.5759 27.6014 4.28737 30.2665C6.99884 32.9316 10.591 34.4148 14.4148 34.4148C15.0174 34.4148 15.6199 34.3685 16.2225 34.299C16.5006 34.2758 16.7555 34.2294 17.0336 34.1831C15.0637 33.0012 13.3488 31.4021 12.0046 29.4786C11.518 28.7833 11.1008 28.0649 10.73 27.3001C10.6373 27.1379 10.5678 26.9525 10.4983 26.7903C10.4983 26.7671 10.4751 26.7439 10.4751 26.7439C9.54809 24.635 9.06141 22.3638 9.06141 20.0232C9.06141 16.6165 10.0811 13.3488 12.0278 10.5446C12.4681 9.89571 12.9548 9.29316 13.4878 8.73696C15.2028 6.90614 17.2885 5.46929 19.6524 4.56547C20.3708 4.28737 21.0892 4.05562 21.8308 3.8934C23.0591 3.59212 24.3337 3.45307 25.6315 3.45307C28.6443 3.45307 31.5411 4.26419 34.0672 5.74739C34.044 5.72422 34.0209 5.70104 33.9977 5.67787C33.9745 5.65469 33.9282 5.60834 33.905 5.58517L33.8818 5.56199C33.8586 5.53882 33.8123 5.51564 33.7891 5.46929C33.7659 5.44612 33.7196 5.42294 33.6964 5.37659C33.6964 5.37659 33.6964 5.37659 33.6732 5.35342C33.6269 5.33024 33.6037 5.28389 33.5574 5.26072L33.511 5.21437L33.4878 5.19119C33.4415 5.14484 33.3951 5.09849 33.3256 5.05214C33.2561 5.00579 33.2097 4.95944 33.1634 4.91309C33.1402 4.88992 33.117 4.88992 33.117 4.86674C33.0707 4.84357 33.0475 4.79722 33.0012 4.77404L32.9316 4.70452L32.8853 4.65817L32.8621 4.63499L32.8389 4.61182C32.7926 4.56547 32.7462 4.54229 32.6999 4.49594C32.6767 4.47277 32.6304 4.44959 32.6072 4.40324C32.4913 4.31054 32.3754 4.21784 32.2827 4.14832C32.2596 4.12514 32.2132 4.10197 32.19 4.0788L32.1437 4.05562L32.1205 4.03244C32.1205 4.03244 32.1205 4.03244 32.0973 4.03244L32.0278 3.9861L32.0046 3.96292L31.9119 3.8934L31.8888 3.87022C31.8656 3.84705 31.8656 3.84705 31.8424 3.82387L31.8192 3.8007C31.7961 3.77752 31.7497 3.75435 31.7265 3.73117L31.7034 3.708C31.6107 3.63847 31.5411 3.59212 31.4484 3.5226C31.4021 3.49942 31.3789 3.47625 31.3326 3.45307L31.3094 3.4299C31.263 3.38355 31.1935 3.36037 31.1472 3.31402C31.124 3.31402 31.124 3.29085 31.1008 3.29085C31.0545 3.26767 31.0081 3.2445 30.9849 3.22132C30.9154 3.17497 30.8691 3.1518 30.7995 3.10545C30.73 3.0591 30.6837 3.03592 30.6141 2.98957L30.5214 2.92005C30.4983 2.92005 30.4983 2.89687 30.4751 2.89687C30.4519 2.89687 30.4287 2.8737 30.4056 2.8737C30.3824 2.8737 30.3824 2.85052 30.3592 2.85052C30.3129 2.82735 30.2665 2.80417 30.2202 2.781L30.197 2.75782C30.1738 2.75782 30.1738 2.73465 30.1506 2.73465C30.1043 2.71147 30.0579 2.6883 30.0348 2.66512C30.0348 2.66512 30.0348 2.66512 30.0116 2.66512C29.7335 2.5029 29.4322 2.36385 29.1541 2.20162H29.1309C29.0614 2.17845 28.9919 2.1321 28.9455 2.10892L28.5052 1.92352C28.5052 1.92352 28.5052 1.92352 28.482 1.92352C28.2735 1.83082 28.0881 1.73812 27.9027 1.6686C27.8563 1.64542 27.81 1.62225 27.7636 1.62225H27.7404H27.7173L27.6477 1.59907C27.6246 1.59907 27.6014 1.5759 27.555 1.5759C27.5319 1.5759 27.5319 1.5759 27.5087 1.55272C27.3233 1.4832 27.1611 1.41367 27.022 1.36732L26.9293 1.34415H26.9061L26.8134 1.32097C26.5585 1.22827 26.3268 1.13557 26.0487 1.06605C26.0487 1.06605 26.0487 1.06605 26.0255 1.06605C25.9791 1.04287 25.9328 1.04287 25.8864 1.0197C25.8401 0.996524 25.7937 0.996524 25.7474 0.973349C25.7242 0.973349 25.6779 0.950174 25.6547 0.950174C25.5388 0.926999 25.4461 0.880649 25.3302 0.857474C25.3071 0.857474 25.3071 0.857474 25.2839 0.857474C25.2839 0.718424 25.2607 0.718424 25.2375 0.718424H25.2144H25.1912C24.9826 0.672074 24.774 0.602549 24.5423 0.556199C24.4264 0.533024 24.2874 0.509849 24.1715 0.463499C23.9629 0.417149 23.7312 0.3708 23.5226 0.32445C23.4531 0.301275 23.3604 0.301275 23.2908 0.2781C23.2213 0.254925 23.1286 0.254925 23.0591 0.23175C23.0127 0.23175 22.9896 0.23175 22.9432 0.208575C22.8969 0.208575 22.8505 0.1854 22.8042 0.1854C22.5724 0.162225 22.3407 0.115875 22.1089 0.0926999C21.6686 0.0463499 21.2051 0.023175 20.7648 0C20.5098 0.023175 20.2549 0.023175 20 0.023175C19.5829 0.023175 19.1425 0.0463499 18.7254 0.0695249C18.679 0.0695249 18.6327 0.0695249 18.5863 0.0695249C18.1228 0.0926999 17.6593 0.13905 17.1958 0.208575C17.1031 0.23175 17.0336 0.23175 16.9409 0.254925L0.23175 16.9641Z" fill="#005FA3"/>
<path d="M39.7684 23.0592V23.036C39.7684 23.0128 39.7684 22.9896 39.7915 22.9433V22.9201C39.7915 22.8738 39.8147 22.8506 39.8147 22.8042V22.7811V22.7579C39.8147 22.7347 39.8147 22.7347 39.8147 22.7347L39.8379 22.6188L39.8611 22.5261C39.8611 22.4334 39.8842 22.3639 39.8842 22.2944C39.8842 22.2249 39.9074 22.1553 39.9074 22.0858C39.9074 22.0163 39.9306 21.9699 39.9306 21.9236V21.8772C39.9306 21.8309 39.9306 21.8077 39.9306 21.7614V21.7382V21.715C39.9306 21.6687 39.9306 21.6223 39.9537 21.5528V21.5296C39.9537 21.4601 39.9769 21.3906 39.9769 21.2979C39.9769 21.2283 39.9769 21.1356 40.0001 21.0661V21.0429V21.0198V20.9966C40.0001 20.9271 40.0001 20.8575 40.0001 20.8112C40.0001 20.7185 40.0001 20.649 40.0001 20.5563V20.5099C40.0001 20.4404 40.0001 20.394 40.0001 20.3245V20.1855C40.0001 20.1391 40.0001 20.0928 40.0001 20.0232C40.0001 19.9769 40.0001 19.9074 40.0001 19.861V19.8147C39.9538 16.014 38.4242 12.445 35.7127 9.77991C33.0013 7.11479 29.4091 5.63159 25.5853 5.63159C24.7046 5.63159 23.824 5.70112 22.9897 5.86334C24.9595 7.04526 26.6745 8.64434 28.0186 10.5679C29.9653 13.3489 30.985 16.6165 30.985 20.0464C30.985 23.4531 29.9653 26.7208 28.0186 29.525C26.1183 32.2365 23.4763 34.3222 20.3941 35.5041C18.4937 36.2457 16.4775 36.6165 14.4149 36.6165C11.4022 36.6165 8.50532 35.8054 5.97925 34.3222H6.00242C6.0256 34.3454 6.0256 34.3454 6.04877 34.3686L6.09512 34.4149C6.1183 34.4381 6.16465 34.4844 6.18782 34.5076C6.23417 34.554 6.3037 34.6235 6.37322 34.6698C6.41957 34.7162 6.46592 34.7394 6.4891 34.7857C6.55862 34.8552 6.62815 34.9248 6.72085 34.9943C6.7672 35.0406 6.81355 35.087 6.8599 35.1333L6.88307 35.1565L7.02212 35.2724L7.0453 35.2956C7.09165 35.3187 7.11482 35.3651 7.16117 35.3883L7.18435 35.4114L7.20752 35.4346C7.2307 35.4578 7.27705 35.5041 7.3234 35.5273H7.34657H7.36975C7.39292 35.5505 7.43927 35.5737 7.46245 35.5968C7.57832 35.6895 7.67102 35.7591 7.7869 35.8518C7.81007 35.8749 7.83325 35.8981 7.85642 35.8981C7.8796 35.9213 7.90277 35.9445 7.94912 35.9676C7.9723 35.9908 7.9723 35.9908 7.99547 35.9908L8.01865 36.014C8.065 36.0372 8.11135 36.0835 8.1577 36.1067L8.20405 36.1299C8.22722 36.153 8.2504 36.153 8.27357 36.1762C8.29675 36.1994 8.34309 36.2226 8.36627 36.2457L8.41262 36.2689C8.50532 36.3384 8.57485 36.3848 8.66754 36.4543C8.71389 36.4775 8.73707 36.5007 8.78342 36.5238L8.80659 36.547L8.89929 36.6165L8.99199 36.6861C9.03834 36.7092 9.08469 36.7556 9.15422 36.7788C9.20057 36.8019 9.27009 36.8483 9.31644 36.8715H9.50184L9.73359 37.08C9.75677 37.1032 9.80312 37.1264 9.84947 37.1496C9.91899 37.1959 9.98852 37.2423 10.058 37.2654C10.1044 37.2886 10.1739 37.335 10.2203 37.3581C10.5215 37.5204 10.8228 37.6826 11.1241 37.8216C11.1936 37.8448 11.2631 37.8912 11.3327 37.9143C11.3327 37.9143 11.3558 37.9143 11.3558 37.9375C11.4254 37.9607 11.4717 38.007 11.5412 38.0302C11.7266 38.1229 11.912 38.2156 12.1206 38.2851C12.167 38.3083 12.2133 38.3315 12.2597 38.3546C12.2828 38.3546 12.2828 38.3778 12.306 38.3778C12.3755 38.401 12.4219 38.4242 12.4914 38.4474C12.6536 38.5169 12.8159 38.5632 12.9781 38.6328C13.0244 38.6559 13.094 38.6791 13.1403 38.7023C13.3952 38.795 13.6502 38.8877 13.8819 38.9572C13.9283 38.9804 13.9746 38.9804 14.021 39.0035C14.0905 39.0267 14.16 39.0499 14.2527 39.0731L14.3222 39.0963C14.4149 39.1194 14.5076 39.1426 14.5772 39.1658C14.6235 39.1889 14.6699 39.189 14.7162 39.2121C15.2724 39.3512 15.8286 39.4902 16.3848 39.5829C16.4543 39.6061 16.5239 39.6061 16.6166 39.6293C16.7093 39.6524 16.7788 39.6524 16.8483 39.6756C16.9178 39.6988 17.0105 39.6988 17.0801 39.6988C18.0071 39.8378 18.9341 39.8842 19.8842 39.8842C20.8112 39.8842 21.7614 39.8147 22.6884 39.6988H22.7116C22.7811 39.6988 22.8506 39.6756 22.9433 39.6756L39.6525 22.9665C39.7684 23.0592 39.7684 23.0592 39.7684 23.0592Z" fill="#222222"/>
</svg>
